<svg width="35" height="35" viewBox="0 0 35 35" fill="none" xmlns="http://www.w3.org/2000/svg">
<path d="M20.1188 2.34429L18.3847 0.565033C17.6504 -0.188344 16.463 -0.188344 15.7365 0.565033L0.55072 16.1375C-0.183575 16.8909 -0.183575 18.1091 0.55072 18.8545L15.7365 34.435C16.4708 35.1883 17.6582 35.1883 18.3847 34.435L20.1188 32.6557C20.861 31.8943 20.8453 30.6521 20.0876 29.9067L10.6746 20.7059H33.1252C34.1642 20.7059 35 19.8483 35 18.7823V16.2177C35 15.1517 34.1642 14.2941 33.1252 14.2941H10.6746L20.0876 5.09331C20.8531 4.34795 20.8688 3.10568 20.1188 2.34429Z" fill="#E4E3E5"/>
</svg>
