<svg width="35" height="35" viewBox="0 0 35 35" fill="none" xmlns="http://www.w3.org/2000/svg">
<path d="M14.8812 2.34429L16.6153 0.565033C17.3496 -0.188344 18.537 -0.188344 19.2635 0.565033L34.4493 16.1375C35.1836 16.8909 35.1836 18.1091 34.4493 18.8545L19.2635 34.435C18.5292 35.1883 17.3418 35.1883 16.6153 34.435L14.8812 32.6557C14.139 31.8943 14.1547 30.6521 14.9124 29.9067L24.3254 20.7059H1.87479C0.835844 20.7059 0 19.8483 0 18.7823V16.2177C0 15.1517 0.835844 14.2941 1.87479 14.2941H24.3254L14.9124 5.09331C14.1469 4.34795 14.1312 3.10568 14.8812 2.34429Z" fill="#E4E3E5"/>
</svg>
