<svg width="107" height="27" viewBox="0 0 107 27" fill="none" xmlns="http://www.w3.org/2000/svg">
<path d="M0.988 0.799998H6.82V21.248H19.456V26H0.988V0.799998ZM34.4967 26.432C31.8807 26.432 29.5167 25.868 27.4047 24.74C25.3167 23.612 23.6727 22.064 22.4727 20.096C21.2967 18.104 20.7087 15.872 20.7087 13.4C20.7087 10.928 21.2967 8.708 22.4727 6.74C23.6727 4.748 25.3167 3.188 27.4047 2.06C29.5167 0.931999 31.8807 0.368 34.4967 0.368C37.1127 0.368 39.4647 0.931999 41.5527 2.06C43.6407 3.188 45.2847 4.748 46.4847 6.74C47.6847 8.708 48.2847 10.928 48.2847 13.4C48.2847 15.872 47.6847 18.104 46.4847 20.096C45.2847 22.064 43.6407 23.612 41.5527 24.74C39.4647 25.868 37.1127 26.432 34.4967 26.432ZM34.4967 21.464C35.9847 21.464 37.3287 21.128 38.5287 20.456C39.7287 19.76 40.6647 18.8 41.3367 17.576C42.0327 16.352 42.3807 14.96 42.3807 13.4C42.3807 11.84 42.0327 10.448 41.3367 9.224C40.6647 8 39.7287 7.052 38.5287 6.38C37.3287 5.684 35.9847 5.336 34.4967 5.336C33.0087 5.336 31.6647 5.684 30.4647 6.38C29.2647 7.052 28.3167 8 27.6207 9.224C26.9487 10.448 26.6127 11.84 26.6127 13.4C26.6127 14.96 26.9487 16.352 27.6207 17.576C28.3167 18.8 29.2647 19.76 30.4647 20.456C31.6647 21.128 33.0087 21.464 34.4967 21.464ZM69.6957 13.004H75.0237V23.228C73.6557 24.26 72.0717 25.052 70.2717 25.604C68.4717 26.156 66.6597 26.432 64.8357 26.432C62.2197 26.432 59.8677 25.88 57.7797 24.776C55.6917 23.648 54.0477 22.1 52.8477 20.132C51.6717 18.14 51.0837 15.896 51.0837 13.4C51.0837 10.904 51.6717 8.672 52.8477 6.704C54.0477 4.712 55.7037 3.164 57.8157 2.06C59.9277 0.931999 62.3037 0.368 64.9437 0.368C67.1517 0.368 69.1557 0.739999 70.9557 1.484C72.7557 2.228 74.2677 3.308 75.4917 4.724L71.7477 8.18C69.9477 6.284 67.7757 5.336 65.2317 5.336C63.6237 5.336 62.1957 5.672 60.9477 6.344C59.6997 7.016 58.7277 7.964 58.0317 9.188C57.3357 10.412 56.9877 11.816 56.9877 13.4C56.9877 14.96 57.3357 16.352 58.0317 17.576C58.7277 18.8 59.6877 19.76 60.9117 20.456C62.1597 21.128 63.5757 21.464 65.1597 21.464C66.8397 21.464 68.3517 21.104 69.6957 20.384V13.004ZM92.6451 26.432C90.0291 26.432 87.6651 25.868 85.5531 24.74C83.4651 23.612 81.8211 22.064 80.6211 20.096C79.4451 18.104 78.8571 15.872 78.8571 13.4C78.8571 10.928 79.4451 8.708 80.6211 6.74C81.8211 4.748 83.4651 3.188 85.5531 2.06C87.6651 0.931999 90.0291 0.368 92.6451 0.368C95.2611 0.368 97.6131 0.931999 99.7011 2.06C101.789 3.188 103.433 4.748 104.633 6.74C105.833 8.708 106.433 10.928 106.433 13.4C106.433 15.872 105.833 18.104 104.633 20.096C103.433 22.064 101.789 23.612 99.7011 24.74C97.6131 25.868 95.2611 26.432 92.6451 26.432ZM92.6451 21.464C94.1331 21.464 95.4771 21.128 96.6771 20.456C97.8771 19.76 98.8131 18.8 99.4851 17.576C100.181 16.352 100.529 14.96 100.529 13.4C100.529 11.84 100.181 10.448 99.4851 9.224C98.8131 8 97.8771 7.052 96.6771 6.38C95.4771 5.684 94.1331 5.336 92.6451 5.336C91.1571 5.336 89.8131 5.684 88.6131 6.38C87.4131 7.052 86.4651 8 85.7691 9.224C85.0971 10.448 84.7611 11.84 84.7611 13.4C84.7611 14.96 85.0971 16.352 85.7691 17.576C86.4651 18.8 87.4131 19.76 88.6131 20.456C89.8131 21.128 91.1571 21.464 92.6451 21.464Z" fill="#E4E3E5"/>
</svg>
